<svg width="512" height="512" viewBox="0 0 512 512" fill="none" xmlns="http://www.w3.org/2000/svg">
  <g stroke="#bd6e80" stroke-width="10" stroke-linecap="round" stroke-linejoin="round">
    <!-- Neck and shoulders -->
    <path d="M208 28
             C208 72 198 96 176 110
             C156 122 132 126 104 130
             C65 136 36 160 22 196
             C10 226 8 276 8 352"/>
    <path d="M304 28
             C304 72 314 96 336 110
             C356 122 380 126 408 130
             C447 136 476 160 490 196
             C502 226 504 276 504 352"/>

    <!-- Bra straps -->
    <path d="M112 134 C112 178 112 214 104 252"/>
    <path d="M400 134 C400 178 400 214 408 252"/>

    <!-- Bra cups -->
    <path d="M104 252
             C130 220 166 214 204 232
             C226 242 242 258 256 278"/>
    <path d="M408 252
             C382 220 346 214 308 232
             C286 242 270 258 256 278"/>

    <!-- Measuring tape across bust -->
    <path d="M44 252
             C102 270 164 278 256 278
             C348 278 410 270 468 252
             L468 292
             C410 312 348 320 256 320
             C164 320 102 312 44 292
             Z"/>

    <!-- Tape end wrapping downward -->
    <path d="M300 318
             C314 344 326 372 326 408
             C326 442 314 466 292 484
             C278 494 266 484 270 468
             C278 438 278 408 268 376
             C260 350 250 334 240 320"/>

    <!-- Side torso lines -->
    <path d="M112 320 C106 370 104 414 102 472"/>
    <path d="M400 320 C406 370 408 414 410 472"/>
    <path d="M154 324 C150 366 150 410 148 462"/>
    <path d="M358 324 C362 366 362 410 364 462"/>

    <!-- Tape ticks -->
    <path d="M72 266 V288"/>
    <path d="M98 272 V298"/>
    <path d="M124 278 V300"/>
    <path d="M150 282 V306"/>
    <path d="M176 286 V310"/>
    <path d="M202 290 V312"/>
    <path d="M228 292 V314"/>
    <path d="M256 294 V316"/>
    <path d="M284 292 V314"/>
    <path d="M310 290 V312"/>
    <path d="M336 286 V310"/>
    <path d="M362 282 V306"/>
    <path d="M388 278 V300"/>
    <path d="M414 272 V298"/>
    <path d="M440 266 V288"/>

    <!-- Hanging tape ticks -->
    <path d="M286 344 L310 338"/>
    <path d="M294 366 L318 360"/>
    <path d="M298 390 L322 384"/>
    <path d="M298 414 L320 408"/>
    <path d="M294 438 L314 432"/>
    <path d="M286 460 L304 454"/>
  </g>
</svg>
